# xmcd
#
# Track frame offsets:
#	150
#	17960
#	32280
#	50374
#	64808
#	81540
#	99095
#	118286
#	135114
#	150259
#	163084
#	179567
#	191834
#
# Disc length: 2781 seconds
#
# Revision: 0
# Processed by: cddbd v1.5.2PL0 Copyright (c) Steve Scherf et al.
# Submitted via: audiograbber 1.83.01
#
DISCID=a40adb0d
DTITLE=Tyminski - Southern Gothic
DYEAR=2017
DGENRE=Country
TTITLE0=Southern Gothic
TTITLE1=Breathing Fire
TTITLE2=Gone
TTITLE3=Temporary Love
TTITLE4=Perfect Poison
TTITLE5=Devil Is Downtown
TTITLE6=Hollow Hallelujah
TTITLE7=Good For Your Soul
TTITLE8=Wailing Wall
TTITLE9=Haunted Heart
TTITLE10=Bloodline
TTITLE11=Wanted
TTITLE12=Numb
EXTD=
EXTT0=
EXTT1=
EXTT2=
EXTT3=
EXTT4=
EXTT5=
EXTT6=
EXTT7=
EXTT8=
EXTT9=
EXTT10=
EXTT11=
EXTT12=
PLAYORDER=
